#!OML:ASF H:\Terrain\Patient Classification 1\Walking\steve\steve.ASF
:FULLY-SPECIFIED
:DEGREES
139
root 9.70322 16.0357 2.53623 9.03047 -15.7973 -5.37302
lowerback -0.843829 5.57467 4.56711
upperback -3.54883 7.51021 1.11282
thorax -2.75914 3.64358 -1.47417
lowerneck -10.0415 -1.12134 -1.13807
upperneck 12.745 -1.76027 2.93483
head 5.53129 -0.703012 0.970921
rclavicle -6.59678e-015 2.08724e-015
rhumerus -32.5743 15.9184 -88.8704
rradius 82.6498
rwrist -11.1558
rhand -24.2677 -36.1814
rfingers 7.12502
rthumb 2.21882 -66.1496
lclavicle -6.59678e-015 2.08724e-015
lhumerus -60.0427 15.9613 64.6742
lradius 15.4381
lwrist 6.41918
lhand -20.1464 -5.56486
lfingers 7.12502
lthumb 6.19851 24.3245
rfemur 11.5655 4.25388 23.496
rtibia 23.7929
rfoot 10.5037 15.6372
rtoes 1.84685
lfemur -39.2988 3.36629 -13.9619
ltibia 26.0245
lfoot -11.0479 7.16854
ltoes -7.18257
140
root 9.70459 16.0264 2.84286 9.14644 -15.4947 -5.0203
lowerback -1.57444 5.41744 4.06131
upperback -3.58029 7.2523 0.963183
thorax -2.43703 3.53404 -1.27938
lowerneck -9.84608 -1.10452 -1.26653
upperneck 12.5276 -1.77856 3.40021
head 5.43603 -0.688698 1.13695
rclavicle 4.58743e-015 -4.37326e-015
rhumerus -33.1621 15.3855 -89.1979
rradius 81.8374
rwrist -11.2922
rhand -24.6803 -36.768
rfingers 7.12502
rthumb 1.82029 -66.7399
lclavicle 4.58743e-015 -4.37326e-015
lhumerus -60.3901 16.8366 63.2215
lradius 15.1981
lwrist 5.00069
lhand -19.2703 -4.08629
lfingers 7.12502
lthumb 7.0442 25.7765
rfemur 10.8184 4.43585 23.088
rtibia 25.7511
rfoot 14.108 11.8876
rtoes 6.5384
lfemur -39.9437 3.5056 -14.7584
ltibia 27.917
lfoot -8.75219 6.09821
ltoes -7.33282
141
root 9.70312 16.0144 3.13952 9.06118 -15.1924 -4.23758
lowerback -2.33704 5.30168 3.27404
upperback -3.40649 7.05106 0.606777
thorax -1.88674 3.46116 -1.12862
lowerneck -9.75849 -1.18244 -1.36787
upperneck 12.1343 -1.93181 3.94158
head 5.30901 -0.735315 1.31108
rclavicle 9.88613e-014 1.26974e-014
rhumerus -33.8104 14.5796 -89.3342
rradius 80.9973
rwrist -11.1731
rhand -24.8154 -36.2743
rfingers 7.12502
rthumb 1.68988 -66.2474
lclavicle 9.88613e-014 1.26974e-014
lhumerus -60.2681 17.8558 61.6277
lradius 14.8635
lwrist 3.49878
lhand -18.6427 -2.4876
lfingers 7.12502
lthumb 7.65003 27.354
rfemur 9.85632 4.75241 22.2436
rtibia 28.522
rfoot 16.6787 8.95221
rtoes 7.01811
lfemur -40.2012 3.55223 -16.0082
ltibia 29.6545
lfoot -6.85436 5.6909
ltoes -5.28729
142
root 9.69208 16.0162 3.40077 8.85894 -14.9928 -3.20528
lowerback -2.4062 5.16997 1.97866
upperback -3.39278 6.88042 0.256197
thorax -1.9454 3.40038 -0.778287
lowerneck -10.1929 -1.3256 -1.41176
upperneck 12.4002 -2.17155 4.25959
head 5.47657 -0.824004 1.39832
rclavicle 7.18987e-014 1.85864e-014
rhumerus -34.7665 13.4793 -89.3827
rradius 80.0252
rwrist -10.8032
rhand -23.8736 -34.6911
rfingers 7.12502
rthumb 2.59942 -64.655
lclavicle 7.18987e-014 1.85864e-014
lhumerus -60.2211 18.9854 59.9325
lradius 14.3871
lwrist 1.59468
lhand -18.3786 -1.80746
lfingers 7.12502
lthumb 7.90492 28.0247
rfemur 8.66213 5.69509 21.3159
rtibia 31.9213
rfoot 18.8115 5.97928
rtoes 9.26668
lfemur -40.2837 3.78654 -17.5298
ltibia 31.2657
lfoot -5.97851 5.35006
ltoes -4.0093
143
root 9.6789 16.0216 3.64363 8.84039 -14.7278 -2.67105
lowerback -2.08766 5.01343 1.0466
upperback -3.55671 6.68544 0.0874361
thorax -2.3817 3.31785 -0.487536
lowerneck -10.6051 -1.42355 -1.49256
upperneck 12.7247 -2.33639 4.49417
head 5.657 -0.88213 1.47112
rclavicle -5.14565e-014 -2.88238e-015
rhumerus -35.4197 12.2246 -89.5612
rradius 78.5934
rwrist -10.4976
rhand -21.6899 -33.048
rfingers 7.12502
rthumb 4.70818 -62.9757
lclavicle -5.14565e-014 -2.88238e-015
lhumerus -60.2806 19.9427 58.4298
lradius 13.8821
lwrist -0.444982
lhand -18.1668 -2.07515
lfingers 7.12502
lthumb 8.10932 27.7493
rfemur 6.55113 5.81033 20.9498
rtibia 35.6261
rfoot 20.6796 5.89863
rtoes -1.18947
lfemur -40.405 4.20236 -18.5744
ltibia 32.6961
lfoot -5.72573 4.07054
ltoes -3.80127
144
root 9.67168 16.0193 3.8927 8.57856 -14.2479 -1.99323
lowerback -1.80167 4.81163 0.208536
upperback -3.52205 6.41698 -0.16147
thorax -2.5717 3.19997 -0.310182
lowerneck -10.792 -1.4719 -1.50989
upperneck 12.5803 -2.4284 4.73977
head 5.65016 -0.909195 1.54269
rclavicle 2.76054e-014 2.21645e-014
rhumerus -35.9941 11.1267 -89.7482
rradius 77.323
rwrist -10.5633
rhand -23.5368 -35.3781
rfingers 7.12502
rthumb 2.92473 -65.3377
lclavicle 2.76054e-014 2.21645e-014
lhumerus -60.0295 20.8721 57.1155
lradius 13.4445
lwrist -2.47993
lhand -18.2247 -2.53153
lfingers 7.12502
lthumb 8.05343 27.295
rfemur 4.96202 6.03218 20.4752
rtibia 39.4236
rfoot 22.2382 5.01807
rtoes -3.40483
lfemur -40.2088 4.30123 -19.7154
ltibia 33.8555
lfoot -5.33184 2.51503
ltoes -3.30851
145
root 9.65417 16.0372 4.14662 8.00546 -14.4397 -0.977566
lowerback -1.4734 4.82043 -1.0902
upperback -3.31672 6.4199 -0.519869
thorax -2.64518 3.22808 0.01311
lowerneck -10.8876 -1.53066 -1.43384
upperneck 12.2006 -2.52461 4.88131
head 5.55212 -0.946142 1.56566
rclavicle 3.58931e-014 3.57812e-015
rhumerus -36.8435 10.7875 -90.3552
rradius 76.5292
rwrist -13.1249
rhand -27.3865 -36.4157
rfingers 7.12502
rthumb -0.793394 -66.3939
lclavicle 3.58931e-014 3.57812e-015
lhumerus -59.5461 22.1126 55.5146
lradius 12.9278
lwrist -4.95562
lhand -18.5378 -2.81888
lfingers 7.12502
lthumb 7.75125 27.019
rfemur 3.73392 6.97152 19.5665
rtibia 43.1563
rfoot 23.8161 2.28884
rtoes 0.169966
lfemur -39.3922 4.84686 -21.1412
ltibia 34.7513
lfoot -5.5467 1.26193
ltoes -3.40788
146
root 9.65294 16.0505 4.39933 7.685 -14.0564 -0.185096
lowerback -1.278 4.62213 -1.84099
upperback -3.20921 6.14369 -0.836367
thorax -2.68557 3.10327 0.0922732
lowerneck -10.7305 -1.56328 -1.43732
upperneck 11.6651 -2.55372 4.9438
head 5.36035 -0.966088 1.58324
rclavicle -2.16023e-014 -2.68359e-014
rhumerus -37.2284 9.79121 -90.7066
rradius 74.8244
rwrist -13.4359
rhand -27.4234 -38.0583
rfingers 7.12502
rthumb -0.829046 -68.0364
lclavicle -2.16023e-014 -2.68359e-014
lhumerus -59.0426 22.9567 54.6899
lradius 12.6287
lwrist -6.7059
lhand -18.4715 -3.16345
lfingers 7.12502
lthumb 7.81523 26.6721
rfemur 2.23083 6.94386 18.8402
rtibia 46.7518
rfoot 25.2433 -2.48365
rtoes 5.14833
lfemur -38.6326 4.78482 -22.3218
ltibia 35.3981
lfoot -6.21746 0.318503
ltoes -3.29146
147
root 9.65566 16.0647 4.63765 7.51816 -13.8611 0.144279
lowerback -0.931159 4.49935 -2.13879
upperback -3.1749 5.96637 -0.98817
thorax -2.85612 3.01993 0.0744463
lowerneck -10.5743 -1.57199 -1.56847
upperneck 11.2462 -2.53725 5.02568
head 5.20573 -0.966479 1.63166
rclavicle -2.68639e-014 1.8487e-014
rhumerus -37.5807 8.39589 -90.7102
rradius 72.956
rwrist -12.4278
rhand -23.9252 -39.4105
rfingers 7.12502
rthumb 2.54958 -69.375
lclavicle -2.68639e-014 1.8487e-014
lhumerus -58.4113 23.1574 55.1097
lradius 12.7512
lwrist -7.36422
lhand -18.3806 -3.39831
lfingers 7.12502
lthumb 7.90303 26.434
rfemur 0.472872 6.75025 18.5935
rtibia 50.1521
rfoot 26.0963 -5.85079
rtoes 2.52954
lfemur -37.9021 4.8459 -22.9686
ltibia 35.8509
lfoot -6.5921 -0.382385
ltoes -0.690951
148
root 9.65742 16.0949 4.87296 7.2757 -14.0117 0.435732
lowerback -0.477961 4.4805 -2.4448
upperback -3.14299 5.92177 -1.11867
thorax -3.09466 3.00382 0.0713228
lowerneck -10.5135 -1.55962 -1.61059
upperneck 11.1179 -2.50201 4.97747
head 5.15418 -0.957059 1.62627
rclavicle 9.71063e-014 1.23246e-014
rhumerus -38.3086 7.41056 -90.6927
rradius 71.5349
rwrist -12.4146
rhand -24.258 -40.0671
rfingers 7.12502
rthumb 2.22823 -70.0352
lclavicle 9.71063e-014 1.23246e-014
lhumerus -57.7351 23.3035 55.6649
lradius 12.6386
lwrist -8.56084
lhand -19.211 -4.2384
lfingers 7.12502
lthumb 7.10149 25.6225
rfemur -1.29506 6.68045 18.3202
rtibia 53.3341
rfoot 26.1921 -5.81899
rtoes -1.02285
lfemur -36.9713 5.18 -23.5423
ltibia 36.1524
lfoot -6.92851 -1.02223
ltoes 0.53075
